<mxfile host="Electron" modified="2024-07-16T12:09:12.927Z" agent="Mozilla/5.0 (Windows NT 10.0; Win64; x64) AppleWebKit/537.36 (KHTML, like Gecko) draw.io/22.1.16 Chrome/120.0.6099.109 Electron/28.1.0 Safari/537.36" etag="RwNGr_h4KlVqZU43lRiI" version="22.1.16" type="device">
  <diagram name="Общая топология ЦОД" id="TC6Q54lSCY4vWSKHGPRb">
    <mxGraphModel dx="3585" dy="2910" grid="0" gridSize="10" guides="1" tooltips="1" connect="1" arrows="1" fold="1" page="0" pageScale="1" pageWidth="1169" pageHeight="827" math="0" shadow="0">
      <root>
        <mxCell id="0" />
        <mxCell id="1" parent="0" />
        <mxCell id="myVjWRpwqgNzT39nadzQ-1" value="POD1&lt;br style=&quot;font-size: 28px;&quot;&gt;&quot;OFFICE&quot;" style="rounded=1;whiteSpace=wrap;html=1;absoluteArcSize=1;arcSize=14;strokeWidth=2;align=left;horizontal=1;verticalAlign=top;fontSize=28;fontStyle=1" vertex="1" parent="1">
          <mxGeometry x="594" y="-786" width="984" height="1060" as="geometry" />
        </mxCell>
        <mxCell id="myVjWRpwqgNzT39nadzQ-2" value="POD2&lt;br style=&quot;font-size: 28px;&quot;&gt;&quot;PRODUCTION&quot;" style="rounded=1;whiteSpace=wrap;html=1;absoluteArcSize=1;arcSize=14;strokeWidth=2;align=left;horizontal=1;verticalAlign=top;fontSize=28;fontStyle=1" vertex="1" parent="1">
          <mxGeometry x="30" y="-790" width="522" height="1062" as="geometry" />
        </mxCell>
        <mxCell id="myVjWRpwqgNzT39nadzQ-3" value="spine-2-1" style="shape=mxgraph.cisco.routers.router;sketch=0;html=1;pointerEvents=1;dashed=0;fillColor=#036897;strokeColor=#ffffff;strokeWidth=2;verticalLabelPosition=bottom;verticalAlign=top;align=center;outlineConnect=0;fontStyle=1;fontSize=13;" vertex="1" parent="1">
          <mxGeometry x="154" y="-550" width="78" height="53" as="geometry" />
        </mxCell>
        <mxCell id="myVjWRpwqgNzT39nadzQ-4" value="spine-2-1" style="shape=mxgraph.cisco.routers.router;sketch=0;html=1;pointerEvents=1;dashed=0;fillColor=#036897;strokeColor=#ffffff;strokeWidth=2;verticalLabelPosition=bottom;verticalAlign=top;align=center;outlineConnect=0;fontStyle=1;fontSize=13;" vertex="1" parent="1">
          <mxGeometry x="322" y="-374" width="78" height="53" as="geometry" />
        </mxCell>
        <mxCell id="myVjWRpwqgNzT39nadzQ-5" style="edgeStyle=orthogonalEdgeStyle;rounded=0;orthogonalLoop=1;jettySize=auto;html=1;endArrow=none;endFill=0;shape=link;" edge="1" parent="1" source="myVjWRpwqgNzT39nadzQ-6" target="myVjWRpwqgNzT39nadzQ-7">
          <mxGeometry relative="1" as="geometry" />
        </mxCell>
        <mxCell id="myVjWRpwqgNzT39nadzQ-6" value="leaf-2-1" style="shape=mxgraph.cisco.routers.router;sketch=0;html=1;pointerEvents=1;dashed=0;fillColor=#036897;strokeColor=#ffffff;strokeWidth=2;verticalLabelPosition=bottom;verticalAlign=top;align=center;outlineConnect=0;fontStyle=1;fontSize=13;" vertex="1" parent="1">
          <mxGeometry x="113" y="-82" width="78" height="53" as="geometry" />
        </mxCell>
        <mxCell id="myVjWRpwqgNzT39nadzQ-7" value="leaf-2-1" style="shape=mxgraph.cisco.routers.router;sketch=0;html=1;pointerEvents=1;dashed=0;fillColor=#036897;strokeColor=#ffffff;strokeWidth=2;verticalLabelPosition=bottom;verticalAlign=top;align=center;outlineConnect=0;fontStyle=1;fontSize=13;" vertex="1" parent="1">
          <mxGeometry x="332" y="-82" width="78" height="53" as="geometry" />
        </mxCell>
        <mxCell id="myVjWRpwqgNzT39nadzQ-8" value="" style="endArrow=none;html=1;rounded=0;entryX=0.12;entryY=0.9;entryDx=0;entryDy=0;entryPerimeter=0;exitX=0.5;exitY=0;exitDx=0;exitDy=0;exitPerimeter=0;fontSize=8;strokeColor=#000099;" edge="1" parent="1" source="myVjWRpwqgNzT39nadzQ-6" target="myVjWRpwqgNzT39nadzQ-3">
          <mxGeometry width="50" height="50" relative="1" as="geometry">
            <mxPoint x="443" y="-110" as="sourcePoint" />
            <mxPoint x="493" y="-160" as="targetPoint" />
          </mxGeometry>
        </mxCell>
        <mxCell id="myVjWRpwqgNzT39nadzQ-9" value="" style="endArrow=none;html=1;rounded=0;exitX=0.88;exitY=0.1;exitDx=0;exitDy=0;exitPerimeter=0;entryX=0.12;entryY=0.9;entryDx=0;entryDy=0;entryPerimeter=0;strokeColor=#990099;" edge="1" parent="1" source="myVjWRpwqgNzT39nadzQ-6" target="myVjWRpwqgNzT39nadzQ-4">
          <mxGeometry width="50" height="50" relative="1" as="geometry">
            <mxPoint x="52" y="-130" as="sourcePoint" />
            <mxPoint x="202" y="-362" as="targetPoint" />
          </mxGeometry>
        </mxCell>
        <mxCell id="myVjWRpwqgNzT39nadzQ-10" value="" style="endArrow=none;html=1;rounded=0;entryX=0.5;entryY=1;entryDx=0;entryDy=0;entryPerimeter=0;exitX=0.12;exitY=0.1;exitDx=0;exitDy=0;exitPerimeter=0;strokeColor=#000099;" edge="1" parent="1" source="myVjWRpwqgNzT39nadzQ-7" target="myVjWRpwqgNzT39nadzQ-3">
          <mxGeometry width="50" height="50" relative="1" as="geometry">
            <mxPoint x="173" y="-98" as="sourcePoint" />
            <mxPoint x="223" y="-360" as="targetPoint" />
          </mxGeometry>
        </mxCell>
        <mxCell id="myVjWRpwqgNzT39nadzQ-11" value="" style="endArrow=none;html=1;rounded=0;entryX=0.5;entryY=1;entryDx=0;entryDy=0;entryPerimeter=0;exitX=0.5;exitY=0;exitDx=0;exitDy=0;exitPerimeter=0;strokeColor=#990099;" edge="1" parent="1" source="myVjWRpwqgNzT39nadzQ-7" target="myVjWRpwqgNzT39nadzQ-4">
          <mxGeometry width="50" height="50" relative="1" as="geometry">
            <mxPoint x="163" y="-103" as="sourcePoint" />
            <mxPoint x="529" y="-340" as="targetPoint" />
          </mxGeometry>
        </mxCell>
        <mxCell id="myVjWRpwqgNzT39nadzQ-12" value="" style="endArrow=none;html=1;rounded=0;fontSize=11;strokeColor=#990099;entryX=1;entryY=0.5;entryDx=0;entryDy=0;entryPerimeter=0;" edge="1" parent="1" source="myVjWRpwqgNzT39nadzQ-21" target="myVjWRpwqgNzT39nadzQ-4">
          <mxGeometry width="50" height="50" relative="1" as="geometry">
            <mxPoint x="356.3599999999997" y="-103.70000000000005" as="sourcePoint" />
            <mxPoint x="459" y="-461" as="targetPoint" />
          </mxGeometry>
        </mxCell>
        <mxCell id="myVjWRpwqgNzT39nadzQ-13" value="" style="endArrow=none;html=1;rounded=0;entryX=1;entryY=0.5;entryDx=0;entryDy=0;entryPerimeter=0;exitX=0;exitY=0.5;exitDx=0;exitDy=0;exitPerimeter=0;strokeColor=#000099;" edge="1" parent="1" source="myVjWRpwqgNzT39nadzQ-20" target="myVjWRpwqgNzT39nadzQ-3">
          <mxGeometry width="50" height="50" relative="1" as="geometry">
            <mxPoint x="385.99999999999955" y="-109" as="sourcePoint" />
            <mxPoint x="141" y="-391" as="targetPoint" />
          </mxGeometry>
        </mxCell>
        <mxCell id="myVjWRpwqgNzT39nadzQ-14" value="" style="endArrow=none;html=1;rounded=0;fontSize=8;strokeColor=#000099;" edge="1" parent="1" source="myVjWRpwqgNzT39nadzQ-19" target="myVjWRpwqgNzT39nadzQ-6">
          <mxGeometry width="50" height="50" relative="1" as="geometry">
            <mxPoint x="94.5" y="117" as="sourcePoint" />
            <mxPoint x="195.00234192037465" y="-38" as="targetPoint" />
          </mxGeometry>
        </mxCell>
        <mxCell id="myVjWRpwqgNzT39nadzQ-15" value="" style="endArrow=none;html=1;rounded=0;fontSize=8;strokeColor=#000099;entryX=0.5;entryY=1;entryDx=0;entryDy=0;entryPerimeter=0;" edge="1" parent="1" source="myVjWRpwqgNzT39nadzQ-19" target="myVjWRpwqgNzT39nadzQ-7">
          <mxGeometry width="50" height="50" relative="1" as="geometry">
            <mxPoint x="243" y="120" as="sourcePoint" />
            <mxPoint x="162" y="-19" as="targetPoint" />
          </mxGeometry>
        </mxCell>
        <mxCell id="myVjWRpwqgNzT39nadzQ-16" value="CAD_Slave" style="sketch=0;outlineConnect=0;fontColor=#232F3E;gradientColor=none;fillColor=#006600;strokeColor=none;dashed=0;verticalLabelPosition=bottom;verticalAlign=top;align=center;html=1;fontSize=12;fontStyle=0;aspect=fixed;pointerEvents=1;shape=mxgraph.aws4.traditional_server;" vertex="1" parent="1">
          <mxGeometry x="123" y="84" width="45" height="78" as="geometry" />
        </mxCell>
        <mxCell id="myVjWRpwqgNzT39nadzQ-17" value="" style="endArrow=none;html=1;rounded=0;fontSize=8;strokeColor=#006600;" edge="1" parent="1" source="myVjWRpwqgNzT39nadzQ-16" target="myVjWRpwqgNzT39nadzQ-7">
          <mxGeometry width="50" height="50" relative="1" as="geometry">
            <mxPoint x="249" y="257" as="sourcePoint" />
            <mxPoint x="377" y="108" as="targetPoint" />
          </mxGeometry>
        </mxCell>
        <mxCell id="myVjWRpwqgNzT39nadzQ-18" value="" style="endArrow=none;html=1;rounded=0;fontSize=8;strokeColor=#006600;" edge="1" parent="1" source="myVjWRpwqgNzT39nadzQ-16" target="myVjWRpwqgNzT39nadzQ-6">
          <mxGeometry width="50" height="50" relative="1" as="geometry">
            <mxPoint x="246" y="207" as="sourcePoint" />
            <mxPoint x="158" y="108" as="targetPoint" />
          </mxGeometry>
        </mxCell>
        <mxCell id="myVjWRpwqgNzT39nadzQ-19" value="АСУТП_Master" style="sketch=0;outlineConnect=0;fontColor=#232F3E;gradientColor=none;fillColor=#0000CC;strokeColor=none;dashed=0;verticalLabelPosition=bottom;verticalAlign=top;align=center;html=1;fontSize=12;fontStyle=0;aspect=fixed;pointerEvents=1;shape=mxgraph.aws4.traditional_server;" vertex="1" parent="1">
          <mxGeometry x="350" y="81" width="45" height="78" as="geometry" />
        </mxCell>
        <mxCell id="myVjWRpwqgNzT39nadzQ-20" value="spine-1-1" style="shape=mxgraph.cisco.routers.router;sketch=0;html=1;pointerEvents=1;dashed=0;fillColor=#036897;strokeColor=#ffffff;strokeWidth=2;verticalLabelPosition=bottom;verticalAlign=top;align=center;outlineConnect=0;fontStyle=1;fontSize=13;" vertex="1" parent="1">
          <mxGeometry x="724" y="-286" width="78" height="53" as="geometry" />
        </mxCell>
        <mxCell id="myVjWRpwqgNzT39nadzQ-21" value="spine-1-2" style="shape=mxgraph.cisco.routers.router;sketch=0;html=1;pointerEvents=1;dashed=0;fillColor=#036897;strokeColor=#ffffff;strokeWidth=2;verticalLabelPosition=bottom;verticalAlign=top;align=center;outlineConnect=0;fontStyle=1;fontSize=13;" vertex="1" parent="1">
          <mxGeometry x="1320" y="-365" width="78" height="53" as="geometry" />
        </mxCell>
        <mxCell id="myVjWRpwqgNzT39nadzQ-22" style="edgeStyle=orthogonalEdgeStyle;rounded=0;orthogonalLoop=1;jettySize=auto;html=1;endArrow=none;endFill=0;shape=link;" edge="1" parent="1" source="myVjWRpwqgNzT39nadzQ-23" target="myVjWRpwqgNzT39nadzQ-24">
          <mxGeometry relative="1" as="geometry" />
        </mxCell>
        <mxCell id="myVjWRpwqgNzT39nadzQ-23" value="leaf-1-1" style="shape=mxgraph.cisco.routers.router;sketch=0;html=1;pointerEvents=1;dashed=0;fillColor=#036897;strokeColor=#ffffff;strokeWidth=2;verticalLabelPosition=bottom;verticalAlign=top;align=center;outlineConnect=0;fontStyle=1;fontSize=13;" vertex="1" parent="1">
          <mxGeometry x="678" y="-60" width="78" height="53" as="geometry" />
        </mxCell>
        <mxCell id="myVjWRpwqgNzT39nadzQ-24" value="leaf-1-2" style="shape=mxgraph.cisco.routers.router;sketch=0;html=1;pointerEvents=1;dashed=0;fillColor=#036897;strokeColor=#ffffff;strokeWidth=2;verticalLabelPosition=bottom;verticalAlign=top;align=center;outlineConnect=0;fontStyle=1;fontSize=13;" vertex="1" parent="1">
          <mxGeometry x="900" y="-60" width="78" height="53" as="geometry" />
        </mxCell>
        <mxCell id="myVjWRpwqgNzT39nadzQ-25" value="" style="endArrow=none;html=1;rounded=0;fontSize=8;strokeColor=#000099;" edge="1" parent="1" source="myVjWRpwqgNzT39nadzQ-30" target="myVjWRpwqgNzT39nadzQ-40">
          <mxGeometry width="50" height="50" relative="1" as="geometry">
            <mxPoint x="661.5" y="140" as="sourcePoint" />
            <mxPoint x="671" y="-42" as="targetPoint" />
          </mxGeometry>
        </mxCell>
        <mxCell id="myVjWRpwqgNzT39nadzQ-26" value="" style="endArrow=none;html=1;rounded=0;fontSize=8;strokeColor=#000099;" edge="1" parent="1" source="myVjWRpwqgNzT39nadzQ-30" target="myVjWRpwqgNzT39nadzQ-41">
          <mxGeometry width="50" height="50" relative="1" as="geometry">
            <mxPoint x="810" y="143" as="sourcePoint" />
            <mxPoint x="729" y="4" as="targetPoint" />
          </mxGeometry>
        </mxCell>
        <mxCell id="myVjWRpwqgNzT39nadzQ-27" value="CAD_Master" style="sketch=0;outlineConnect=0;fontColor=#232F3E;gradientColor=none;fillColor=#006600;strokeColor=none;dashed=0;verticalLabelPosition=bottom;verticalAlign=top;align=center;html=1;fontSize=12;fontStyle=0;aspect=fixed;pointerEvents=1;shape=mxgraph.aws4.traditional_server;" vertex="1" parent="1">
          <mxGeometry x="951" y="130" width="45" height="78" as="geometry" />
        </mxCell>
        <mxCell id="myVjWRpwqgNzT39nadzQ-28" value="" style="endArrow=none;html=1;rounded=0;fontSize=8;strokeColor=#006600;" edge="1" parent="1" source="myVjWRpwqgNzT39nadzQ-27" target="myVjWRpwqgNzT39nadzQ-24">
          <mxGeometry width="50" height="50" relative="1" as="geometry">
            <mxPoint x="816" y="280" as="sourcePoint" />
            <mxPoint x="944" y="131" as="targetPoint" />
          </mxGeometry>
        </mxCell>
        <mxCell id="myVjWRpwqgNzT39nadzQ-29" value="" style="endArrow=none;html=1;rounded=0;fontSize=8;strokeColor=#006600;entryX=0.88;entryY=0.9;entryDx=0;entryDy=0;entryPerimeter=0;" edge="1" parent="1" source="myVjWRpwqgNzT39nadzQ-27" target="myVjWRpwqgNzT39nadzQ-23">
          <mxGeometry width="50" height="50" relative="1" as="geometry">
            <mxPoint x="813" y="230" as="sourcePoint" />
            <mxPoint x="725" y="131" as="targetPoint" />
          </mxGeometry>
        </mxCell>
        <mxCell id="myVjWRpwqgNzT39nadzQ-30" value="АСУТП_Slave" style="sketch=0;outlineConnect=0;fontColor=#232F3E;gradientColor=none;fillColor=#0000CC;strokeColor=none;dashed=0;verticalLabelPosition=bottom;verticalAlign=top;align=center;html=1;fontSize=12;fontStyle=0;aspect=fixed;pointerEvents=1;shape=mxgraph.aws4.traditional_server;" vertex="1" parent="1">
          <mxGeometry x="1482" y="160" width="45" height="78" as="geometry" />
        </mxCell>
        <mxCell id="myVjWRpwqgNzT39nadzQ-31" value="" style="endArrow=none;html=1;rounded=0;entryX=0.12;entryY=0.9;entryDx=0;entryDy=0;entryPerimeter=0;fontSize=8;strokeColor=#000099;" edge="1" parent="1" source="myVjWRpwqgNzT39nadzQ-23" target="myVjWRpwqgNzT39nadzQ-20">
          <mxGeometry width="50" height="50" relative="1" as="geometry">
            <mxPoint x="355" y="153" as="sourcePoint" />
            <mxPoint x="364" y="-209" as="targetPoint" />
          </mxGeometry>
        </mxCell>
        <mxCell id="myVjWRpwqgNzT39nadzQ-32" value="CRM_Master" style="sketch=0;outlineConnect=0;fontColor=#232F3E;gradientColor=none;fillColor=#994C00;strokeColor=none;dashed=0;verticalLabelPosition=bottom;verticalAlign=top;align=center;html=1;fontSize=12;fontStyle=0;aspect=fixed;pointerEvents=1;shape=mxgraph.aws4.traditional_server;" vertex="1" parent="1">
          <mxGeometry x="661" y="137" width="45" height="78" as="geometry" />
        </mxCell>
        <mxCell id="myVjWRpwqgNzT39nadzQ-33" value="" style="endArrow=none;html=1;rounded=0;fontSize=8;strokeColor=#994C00;entryX=0.12;entryY=0.9;entryDx=0;entryDy=0;entryPerimeter=0;" edge="1" parent="1" source="myVjWRpwqgNzT39nadzQ-32" target="myVjWRpwqgNzT39nadzQ-23">
          <mxGeometry width="50" height="50" relative="1" as="geometry">
            <mxPoint x="790" y="159" as="sourcePoint" />
            <mxPoint x="824" y="41" as="targetPoint" />
          </mxGeometry>
        </mxCell>
        <mxCell id="myVjWRpwqgNzT39nadzQ-34" value="" style="endArrow=none;html=1;rounded=0;fontSize=8;strokeColor=#994C00;entryX=0.12;entryY=0.9;entryDx=0;entryDy=0;entryPerimeter=0;" edge="1" parent="1" source="myVjWRpwqgNzT39nadzQ-32" target="myVjWRpwqgNzT39nadzQ-24">
          <mxGeometry width="50" height="50" relative="1" as="geometry">
            <mxPoint x="821" y="176" as="sourcePoint" />
            <mxPoint x="697" y="-2" as="targetPoint" />
          </mxGeometry>
        </mxCell>
        <mxCell id="myVjWRpwqgNzT39nadzQ-35" value="" style="endArrow=none;html=1;rounded=0;fontSize=8;strokeColor=#000099;entryX=0.5;entryY=1;entryDx=0;entryDy=0;entryPerimeter=0;" edge="1" parent="1" source="myVjWRpwqgNzT39nadzQ-24" target="myVjWRpwqgNzT39nadzQ-20">
          <mxGeometry width="50" height="50" relative="1" as="geometry">
            <mxPoint x="727" y="-50" as="sourcePoint" />
            <mxPoint x="725" y="-242" as="targetPoint" />
          </mxGeometry>
        </mxCell>
        <mxCell id="myVjWRpwqgNzT39nadzQ-36" value="1С_Master" style="sketch=0;outlineConnect=0;fontColor=#232F3E;gradientColor=none;fillColor=#994C00;strokeColor=none;dashed=0;verticalLabelPosition=bottom;verticalAlign=top;align=center;html=1;fontSize=12;fontStyle=0;aspect=fixed;pointerEvents=1;shape=mxgraph.aws4.traditional_server;" vertex="1" parent="1">
          <mxGeometry x="810" y="137" width="45" height="78" as="geometry" />
        </mxCell>
        <mxCell id="myVjWRpwqgNzT39nadzQ-37" value="" style="endArrow=none;html=1;rounded=0;fontSize=8;strokeColor=#994C00;entryX=0.5;entryY=1;entryDx=0;entryDy=0;entryPerimeter=0;" edge="1" parent="1" source="myVjWRpwqgNzT39nadzQ-36" target="myVjWRpwqgNzT39nadzQ-23">
          <mxGeometry width="50" height="50" relative="1" as="geometry">
            <mxPoint x="915" y="164" as="sourcePoint" />
            <mxPoint x="731.0000000000005" y="-40" as="targetPoint" />
          </mxGeometry>
        </mxCell>
        <mxCell id="myVjWRpwqgNzT39nadzQ-38" value="" style="endArrow=none;html=1;rounded=0;fontSize=8;strokeColor=#994C00;" edge="1" parent="1" source="myVjWRpwqgNzT39nadzQ-36" target="myVjWRpwqgNzT39nadzQ-24">
          <mxGeometry width="50" height="50" relative="1" as="geometry">
            <mxPoint x="946" y="181" as="sourcePoint" />
            <mxPoint x="946.7914285714287" y="-40" as="targetPoint" />
          </mxGeometry>
        </mxCell>
        <mxCell id="myVjWRpwqgNzT39nadzQ-39" style="edgeStyle=orthogonalEdgeStyle;rounded=0;orthogonalLoop=1;jettySize=auto;html=1;endArrow=none;endFill=0;shape=link;" edge="1" parent="1" source="myVjWRpwqgNzT39nadzQ-40" target="myVjWRpwqgNzT39nadzQ-41">
          <mxGeometry relative="1" as="geometry" />
        </mxCell>
        <mxCell id="myVjWRpwqgNzT39nadzQ-40" value="leaf-1-3" style="shape=mxgraph.cisco.routers.router;sketch=0;html=1;pointerEvents=1;dashed=0;fillColor=#036897;strokeColor=#ffffff;strokeWidth=2;verticalLabelPosition=bottom;verticalAlign=top;align=center;outlineConnect=0;fontStyle=1;fontSize=13;" vertex="1" parent="1">
          <mxGeometry x="1228" y="-59" width="78" height="53" as="geometry" />
        </mxCell>
        <mxCell id="myVjWRpwqgNzT39nadzQ-41" value="leaf-1-4" style="shape=mxgraph.cisco.routers.router;sketch=0;html=1;pointerEvents=1;dashed=0;fillColor=#036897;strokeColor=#ffffff;strokeWidth=2;verticalLabelPosition=bottom;verticalAlign=top;align=center;outlineConnect=0;fontStyle=1;fontSize=13;" vertex="1" parent="1">
          <mxGeometry x="1450" y="-59" width="78" height="53" as="geometry" />
        </mxCell>
        <mxCell id="myVjWRpwqgNzT39nadzQ-42" value="CRM_Slave" style="sketch=0;outlineConnect=0;fontColor=#232F3E;gradientColor=none;fillColor=#994C00;strokeColor=none;dashed=0;verticalLabelPosition=bottom;verticalAlign=top;align=center;html=1;fontSize=12;fontStyle=0;aspect=fixed;pointerEvents=1;shape=mxgraph.aws4.traditional_server;" vertex="1" parent="1">
          <mxGeometry x="1217" y="159" width="45" height="78" as="geometry" />
        </mxCell>
        <mxCell id="myVjWRpwqgNzT39nadzQ-43" value="" style="endArrow=none;html=1;rounded=0;fontSize=8;strokeColor=#994C00;entryX=0.12;entryY=0.9;entryDx=0;entryDy=0;entryPerimeter=0;" edge="1" parent="1" source="myVjWRpwqgNzT39nadzQ-42" target="myVjWRpwqgNzT39nadzQ-40">
          <mxGeometry width="50" height="50" relative="1" as="geometry">
            <mxPoint x="1340" y="160" as="sourcePoint" />
            <mxPoint x="1374" y="42" as="targetPoint" />
          </mxGeometry>
        </mxCell>
        <mxCell id="myVjWRpwqgNzT39nadzQ-44" value="" style="endArrow=none;html=1;rounded=0;fontSize=8;strokeColor=#994C00;" edge="1" parent="1" source="myVjWRpwqgNzT39nadzQ-42" target="myVjWRpwqgNzT39nadzQ-41">
          <mxGeometry width="50" height="50" relative="1" as="geometry">
            <mxPoint x="1371" y="177" as="sourcePoint" />
            <mxPoint x="1247" y="-1" as="targetPoint" />
          </mxGeometry>
        </mxCell>
        <mxCell id="myVjWRpwqgNzT39nadzQ-45" value="1С_Slave" style="sketch=0;outlineConnect=0;fontColor=#232F3E;gradientColor=none;fillColor=#994C00;strokeColor=none;dashed=0;verticalLabelPosition=bottom;verticalAlign=top;align=center;html=1;fontSize=12;fontStyle=0;aspect=fixed;pointerEvents=1;shape=mxgraph.aws4.traditional_server;" vertex="1" parent="1">
          <mxGeometry x="1350" y="158" width="45" height="78" as="geometry" />
        </mxCell>
        <mxCell id="myVjWRpwqgNzT39nadzQ-46" value="" style="endArrow=none;html=1;rounded=0;fontSize=8;strokeColor=#994C00;" edge="1" parent="1" source="myVjWRpwqgNzT39nadzQ-45" target="myVjWRpwqgNzT39nadzQ-40">
          <mxGeometry width="50" height="50" relative="1" as="geometry">
            <mxPoint x="1465" y="165" as="sourcePoint" />
            <mxPoint x="1281.0000000000005" y="-39" as="targetPoint" />
          </mxGeometry>
        </mxCell>
        <mxCell id="myVjWRpwqgNzT39nadzQ-47" value="" style="endArrow=none;html=1;rounded=0;fontSize=8;strokeColor=#994C00;" edge="1" parent="1" source="myVjWRpwqgNzT39nadzQ-45" target="myVjWRpwqgNzT39nadzQ-41">
          <mxGeometry width="50" height="50" relative="1" as="geometry">
            <mxPoint x="1496" y="182" as="sourcePoint" />
            <mxPoint x="1496.7914285714287" y="-39" as="targetPoint" />
          </mxGeometry>
        </mxCell>
        <mxCell id="myVjWRpwqgNzT39nadzQ-48" value="border-1-1" style="shape=mxgraph.cisco.routers.router;sketch=0;html=1;pointerEvents=1;dashed=0;fillColor=#036897;strokeColor=#ffffff;strokeWidth=2;verticalLabelPosition=bottom;verticalAlign=top;align=center;outlineConnect=0;fontStyle=1;fontSize=13;" vertex="1" parent="1">
          <mxGeometry x="722" y="-548" width="78" height="53" as="geometry" />
        </mxCell>
        <mxCell id="myVjWRpwqgNzT39nadzQ-49" value="border-1-2" style="shape=mxgraph.cisco.routers.router;sketch=0;html=1;pointerEvents=1;dashed=0;fillColor=#036897;strokeColor=#ffffff;strokeWidth=2;verticalLabelPosition=bottom;verticalAlign=top;align=center;outlineConnect=0;fontStyle=1;fontSize=13;" vertex="1" parent="1">
          <mxGeometry x="1047" y="-548" width="78" height="53" as="geometry" />
        </mxCell>
        <mxCell id="myVjWRpwqgNzT39nadzQ-50" value="Int-Router-1" style="shape=mxgraph.cisco.routers.router;sketch=0;html=1;pointerEvents=1;dashed=0;fillColor=#036897;strokeColor=#ffffff;strokeWidth=2;verticalLabelPosition=bottom;verticalAlign=top;align=center;outlineConnect=0;fontStyle=1;fontSize=13;" vertex="1" parent="1">
          <mxGeometry x="726" y="-724" width="78" height="53" as="geometry" />
        </mxCell>
        <mxCell id="myVjWRpwqgNzT39nadzQ-51" style="edgeStyle=orthogonalEdgeStyle;rounded=0;orthogonalLoop=1;jettySize=auto;html=1;exitX=1;exitY=0.5;exitDx=0;exitDy=0;exitPerimeter=0;endArrow=none;endFill=0;" edge="1" parent="1" source="myVjWRpwqgNzT39nadzQ-52" target="myVjWRpwqgNzT39nadzQ-65">
          <mxGeometry relative="1" as="geometry" />
        </mxCell>
        <mxCell id="myVjWRpwqgNzT39nadzQ-52" value="Ext-Router-1" style="shape=mxgraph.cisco.routers.router;sketch=0;html=1;pointerEvents=1;dashed=0;fillColor=#036897;strokeColor=#ffffff;strokeWidth=2;verticalLabelPosition=bottom;verticalAlign=top;align=center;outlineConnect=0;fontStyle=1;fontSize=13;" vertex="1" parent="1">
          <mxGeometry x="1046" y="-717" width="78" height="53" as="geometry" />
        </mxCell>
        <mxCell id="myVjWRpwqgNzT39nadzQ-53" value="" style="endArrow=none;html=1;rounded=0;fontSize=8;strokeColor=#000099;" edge="1" parent="1" source="myVjWRpwqgNzT39nadzQ-48" target="myVjWRpwqgNzT39nadzQ-50">
          <mxGeometry width="50" height="50" relative="1" as="geometry">
            <mxPoint x="364" y="-240" as="sourcePoint" />
            <mxPoint x="193" y="-437" as="targetPoint" />
          </mxGeometry>
        </mxCell>
        <mxCell id="myVjWRpwqgNzT39nadzQ-54" value="" style="endArrow=none;html=1;rounded=0;entryX=0.88;entryY=0.9;entryDx=0;entryDy=0;entryPerimeter=0;fontSize=8;strokeColor=#000099;exitX=0.12;exitY=0.1;exitDx=0;exitDy=0;exitPerimeter=0;" edge="1" parent="1" source="myVjWRpwqgNzT39nadzQ-49" target="myVjWRpwqgNzT39nadzQ-50">
          <mxGeometry width="50" height="50" relative="1" as="geometry">
            <mxPoint x="806" y="-564" as="sourcePoint" />
            <mxPoint x="797" y="-719" as="targetPoint" />
          </mxGeometry>
        </mxCell>
        <mxCell id="myVjWRpwqgNzT39nadzQ-55" value="" style="endArrow=none;html=1;rounded=0;entryX=0;entryY=0.5;entryDx=0;entryDy=0;entryPerimeter=0;fontSize=8;strokeColor=#000099;exitX=0.88;exitY=0.1;exitDx=0;exitDy=0;exitPerimeter=0;" edge="1" parent="1" source="myVjWRpwqgNzT39nadzQ-48" target="myVjWRpwqgNzT39nadzQ-52">
          <mxGeometry width="50" height="50" relative="1" as="geometry">
            <mxPoint x="806" y="-564" as="sourcePoint" />
            <mxPoint x="797" y="-719" as="targetPoint" />
          </mxGeometry>
        </mxCell>
        <mxCell id="myVjWRpwqgNzT39nadzQ-56" value="" style="endArrow=none;html=1;rounded=0;fontSize=8;strokeColor=#000099;" edge="1" parent="1" source="myVjWRpwqgNzT39nadzQ-49" target="myVjWRpwqgNzT39nadzQ-52">
          <mxGeometry width="50" height="50" relative="1" as="geometry">
            <mxPoint x="806" y="-632" as="sourcePoint" />
            <mxPoint x="797" y="-787" as="targetPoint" />
          </mxGeometry>
        </mxCell>
        <mxCell id="myVjWRpwqgNzT39nadzQ-57" value="" style="endArrow=none;html=1;rounded=0;entryX=0.88;entryY=0.9;entryDx=0;entryDy=0;entryPerimeter=0;fontSize=8;strokeColor=#000099;exitX=0;exitY=0.5;exitDx=0;exitDy=0;exitPerimeter=0;" edge="1" parent="1" source="myVjWRpwqgNzT39nadzQ-40" target="myVjWRpwqgNzT39nadzQ-20">
          <mxGeometry width="50" height="50" relative="1" as="geometry">
            <mxPoint x="938" y="-50" as="sourcePoint" />
            <mxPoint x="843" y="-274" as="targetPoint" />
          </mxGeometry>
        </mxCell>
        <mxCell id="myVjWRpwqgNzT39nadzQ-58" value="" style="endArrow=none;html=1;rounded=0;entryX=0.12;entryY=0.9;entryDx=0;entryDy=0;entryPerimeter=0;fontSize=11;strokeColor=#990099;exitX=0.88;exitY=0.1;exitDx=0;exitDy=0;exitPerimeter=0;" edge="1" parent="1" source="myVjWRpwqgNzT39nadzQ-23" target="myVjWRpwqgNzT39nadzQ-21">
          <mxGeometry width="50" height="50" relative="1" as="geometry">
            <mxPoint x="732" y="-50" as="sourcePoint" />
            <mxPoint x="776" y="-274" as="targetPoint" />
          </mxGeometry>
        </mxCell>
        <mxCell id="myVjWRpwqgNzT39nadzQ-59" value="" style="endArrow=none;html=1;rounded=0;entryX=0.5;entryY=1;entryDx=0;entryDy=0;entryPerimeter=0;fontSize=11;strokeColor=#990099;exitX=0.12;exitY=0.1;exitDx=0;exitDy=0;exitPerimeter=0;" edge="1" parent="1" source="myVjWRpwqgNzT39nadzQ-40" target="myVjWRpwqgNzT39nadzQ-21">
          <mxGeometry width="50" height="50" relative="1" as="geometry">
            <mxPoint x="757" y="-45" as="sourcePoint" />
            <mxPoint x="1018" y="-426" as="targetPoint" />
          </mxGeometry>
        </mxCell>
        <mxCell id="myVjWRpwqgNzT39nadzQ-60" value="" style="endArrow=none;html=1;rounded=0;entryX=0.88;entryY=0.9;entryDx=0;entryDy=0;entryPerimeter=0;fontSize=11;strokeColor=#990099;exitX=0.12;exitY=0.1;exitDx=0;exitDy=0;exitPerimeter=0;" edge="1" parent="1" source="myVjWRpwqgNzT39nadzQ-41" target="myVjWRpwqgNzT39nadzQ-21">
          <mxGeometry width="50" height="50" relative="1" as="geometry">
            <mxPoint x="1247" y="-44" as="sourcePoint" />
            <mxPoint x="1048" y="-421" as="targetPoint" />
          </mxGeometry>
        </mxCell>
        <mxCell id="myVjWRpwqgNzT39nadzQ-61" value="" style="endArrow=none;html=1;rounded=0;entryX=0.88;entryY=0.1;entryDx=0;entryDy=0;entryPerimeter=0;fontSize=8;strokeColor=#000099;exitX=0;exitY=0.5;exitDx=0;exitDy=0;exitPerimeter=0;" edge="1" parent="1" source="myVjWRpwqgNzT39nadzQ-49" target="myVjWRpwqgNzT39nadzQ-20">
          <mxGeometry width="50" height="50" relative="1" as="geometry">
            <mxPoint x="1469" y="-44" as="sourcePoint" />
            <mxPoint x="1078" y="-426" as="targetPoint" />
          </mxGeometry>
        </mxCell>
        <mxCell id="myVjWRpwqgNzT39nadzQ-62" value="" style="endArrow=none;html=1;rounded=0;entryX=0.5;entryY=0;entryDx=0;entryDy=0;entryPerimeter=0;fontSize=8;strokeColor=#000099;" edge="1" parent="1" source="myVjWRpwqgNzT39nadzQ-48" target="myVjWRpwqgNzT39nadzQ-20">
          <mxGeometry width="50" height="50" relative="1" as="geometry">
            <mxPoint x="1589" y="-165" as="sourcePoint" />
            <mxPoint x="790" y="-261" as="targetPoint" />
          </mxGeometry>
        </mxCell>
        <mxCell id="myVjWRpwqgNzT39nadzQ-63" value="" style="endArrow=none;html=1;rounded=0;fontSize=11;strokeColor=#990099;exitX=0.88;exitY=0.9;exitDx=0;exitDy=0;exitPerimeter=0;entryX=0;entryY=0.5;entryDx=0;entryDy=0;entryPerimeter=0;" edge="1" parent="1" source="myVjWRpwqgNzT39nadzQ-48" target="myVjWRpwqgNzT39nadzQ-21">
          <mxGeometry width="50" height="50" relative="1" as="geometry">
            <mxPoint x="1469" y="-44" as="sourcePoint" />
            <mxPoint x="1141" y="-464" as="targetPoint" />
          </mxGeometry>
        </mxCell>
        <mxCell id="myVjWRpwqgNzT39nadzQ-64" value="" style="endArrow=none;html=1;rounded=0;fontSize=11;strokeColor=#990099;exitX=1;exitY=0.5;exitDx=0;exitDy=0;exitPerimeter=0;entryX=0.12;entryY=0.1;entryDx=0;entryDy=0;entryPerimeter=0;" edge="1" parent="1" source="myVjWRpwqgNzT39nadzQ-49" target="myVjWRpwqgNzT39nadzQ-21">
          <mxGeometry width="50" height="50" relative="1" as="geometry">
            <mxPoint x="1598" y="-344" as="sourcePoint" />
            <mxPoint x="1087" y="-447" as="targetPoint" />
          </mxGeometry>
        </mxCell>
        <mxCell id="myVjWRpwqgNzT39nadzQ-65" value="Internet" style="ellipse;shape=cloud;whiteSpace=wrap;html=1;" vertex="1" parent="1">
          <mxGeometry x="1205" y="-731" width="120" height="80" as="geometry" />
        </mxCell>
      </root>
    </mxGraphModel>
  </diagram>
</mxfile>
